<?xml version="1.0" encoding="UTF-8" standalone="no"?>
<svg
   xmlns:dc="http://purl.org/dc/elements/1.1/"
   xmlns:cc="http://creativecommons.org/ns#"
   xmlns:rdf="http://www.w3.org/1999/02/22-rdf-syntax-ns#"
   xmlns:svg="http://www.w3.org/2000/svg"
   xmlns="http://www.w3.org/2000/svg"
   xmlns:xlink="http://www.w3.org/1999/xlink"
   xmlns:sodipodi="http://sodipodi.sourceforge.net/DTD/sodipodi-0.dtd"
   xmlns:inkscape="http://www.inkscape.org/namespaces/inkscape"
   width="835.87891mm"
   height="796.42523mm"
   viewBox="0 0 835.87885 796.42519"
   version="1.1"
   id="svg8"
   sodipodi:docname="2dSchematic.svg"
   inkscape:version="1.0 (4035a4fb49, 2020-05-01)">
  <defs
     id="defs2">
    <marker
       inkscape:isstock="true"
       style="overflow:visible"
       id="marker1724"
       refX="0"
       refY="0"
       orient="auto"
       inkscape:stockid="Arrow1Lend">
      <path
         transform="matrix(-0.8,0,0,-0.8,-10,0)"
         style="fill:#000000;fill-opacity:1;fill-rule:evenodd;stroke:#000000;stroke-width:1pt;stroke-opacity:1"
         d="M 0,0 5,-5 -12.5,0 5,5 Z"
         id="path1722" />
    </marker>
    <marker
       inkscape:isstock="true"
       style="overflow:visible"
       id="marker1620"
       refX="0"
       refY="0"
       orient="auto"
       inkscape:stockid="Arrow1Lstart">
      <path
         transform="matrix(0.8,0,0,0.8,10,0)"
         style="fill:#000000;fill-opacity:1;fill-rule:evenodd;stroke:#000000;stroke-width:1pt;stroke-opacity:1"
         d="M 0,0 5,-5 -12.5,0 5,5 Z"
         id="path1618" />
    </marker>
    <marker
       inkscape:stockid="Arrow1Lstart"
       orient="auto"
       refY="0"
       refX="0"
       id="Arrow1Lstart"
       style="overflow:visible"
       inkscape:isstock="true"
       inkscape:collect="always">
      <path
         id="path1008"
         d="M 0,0 5,-5 -12.5,0 5,5 Z"
         style="fill:#000000;fill-opacity:1;fill-rule:evenodd;stroke:#000000;stroke-width:1pt;stroke-opacity:1"
         transform="matrix(0.8,0,0,0.8,10,0)" />
    </marker>
    <marker
       inkscape:stockid="Arrow1Lend"
       orient="auto"
       refY="0"
       refX="0"
       id="Arrow1Lend"
       style="overflow:visible"
       inkscape:isstock="true"
       inkscape:collect="always">
      <path
         id="path846"
         d="M 0,0 5,-5 -12.5,0 5,5 Z"
         style="fill:#000000;fill-opacity:1;fill-rule:evenodd;stroke:#000000;stroke-width:1pt;stroke-opacity:1"
         transform="matrix(-0.8,0,0,-0.8,-10,0)" />
    </marker>
    <g
       id="g360">
      <symbol
         overflow="visible"
         id="symbol9045">
        <path
           style="stroke:none"
           d=""
           id="path683" />
      </symbol>
      <symbol
         overflow="visible"
         id="symbol1957">
        <path
           style="stroke:none"
           d="M 2.765625,-3.734375 V -6.375 h 1.8125 c 1.015625,0 1.1875,0.796875 1.1875,1.25 0,0.765625 -0.46875,1.390625 -1.4375,1.390625 z M 5.46875,-3.5625 C 6.546875,-3.765625 7.1875,-4.359375 7.1875,-5.125 c 0,-0.921875 -0.875,-1.71875 -2.46875,-1.71875 H 0.390625 V -6.375 H 1.46875 v 5.90625 H 0.390625 V 0 h 4.625 C 6.671875,0 7.5,-0.875 7.5,-1.859375 7.5,-2.8125 6.65625,-3.484375 5.46875,-3.5625 Z M 4.609375,-0.46875 H 2.765625 V -3.375 h 1.9375 c 0.203125,0 0.671875,0 1.015625,0.421875 0.328125,0.421875 0.328125,0.984375 0.328125,1.09375 0,0.109375 0,1.390625 -1.4375,1.390625 z m 0,0"
           id="path7582" />
      </symbol>
      <symbol
         overflow="visible"
         id="symbol5011">
        <path
           style="stroke:none"
           d=""
           id="path479" />
      </symbol>
      <symbol
         overflow="visible"
         id="symbol2599">
        <path
           style="stroke:none"
           d="m 3.0625,-1.59375 c 0.15625,0 0.203125,0 0.203125,-0.140625 0,-0.625 -0.34375,-1.375 -1.390625,-1.375 -0.90625,0 -1.609375,0.71875 -1.609375,1.578125 0,0.890625 0.78125,1.59375 1.703125,1.59375 0.9375,0 1.296875,-0.75 1.296875,-0.90625 0,-0.015625 -0.015625,-0.09375 -0.125,-0.09375 -0.09375,0 -0.109375,0.046875 -0.125,0.109375 -0.21875,0.5625 -0.75,0.671875 -1,0.671875 C 1.6875,-0.15625 1.375,-0.296875 1.171875,-0.5625 0.90625,-0.890625 0.90625,-1.3125 0.90625,-1.59375 Z M 0.90625,-1.765625 C 0.984375,-2.75 1.609375,-2.90625 1.875,-2.90625 c 0.859375,0 0.890625,0.96875 0.90625,1.140625 z m 0,0"
           id="path964" />
      </symbol>
      <symbol
         overflow="visible"
         id="symbol3635">
        <path
           style="stroke:none"
           d="m 3.640625,-2.75 h 0.875 V -3 h -0.90625 v -0.78125 c 0,-0.625 0.375,-0.921875 0.6875,-0.921875 0.0625,0 0.125,0 0.203125,0.03125 -0.109375,0.046875 -0.15625,0.15625 -0.15625,0.28125 0,0.1875 0.125,0.3125 0.3125,0.3125 0.1875,0 0.328125,-0.125 0.328125,-0.3125 0,-0.3125 -0.296875,-0.515625 -0.6875,-0.515625 -0.25,0 -0.546875,0.078125 -0.8125,0.296875 -0.21875,-0.25 -0.640625,-0.296875 -0.90625,-0.296875 -0.765625,0 -1.71875,0.34375 -1.71875,1.140625 V -3 h -0.59375 v 0.25 h 0.59375 v 2.203125 C 0.859375,-0.25 0.796875,-0.25 0.34375,-0.25 V 0 c 0.015625,0 0.5,-0.03125 0.78125,-0.03125 0.265625,0 0.515625,0.015625 0.78125,0.03125 v -0.25 c -0.453125,0 -0.515625,0 -0.515625,-0.296875 V -2.75 h 1.71875 v 2.203125 C 3.109375,-0.25 3.046875,-0.25 2.59375,-0.25 V 0 C 2.625,0 3.09375,-0.03125 3.390625,-0.03125 3.6875,-0.03125 4,-0.015625 4.296875,0 V -0.25 H 4.15625 c -0.515625,0 -0.515625,-0.078125 -0.515625,-0.3125 z M 1.359375,-3 v -0.765625 c 0,-0.671875 0.6875,-0.9375 1.203125,-0.9375 0.0625,0 0.359375,0 0.59375,0.109375 -0.078125,0.015625 -0.203125,0.109375 -0.203125,0.296875 0,0.09375 0.03125,0.21875 0.171875,0.28125 C 3.109375,-3.9375 3.109375,-3.859375 3.109375,-3.78125 V -3 Z m 0,0"
           id="path7579" />
      </symbol>
      <symbol
         overflow="visible"
         id="symbol8082">
        <path
           style="stroke:none"
           d="m 3.109375,-1.875 c 0,-0.359375 0,-0.625 -0.328125,-0.890625 C 2.5,-3 2.171875,-3.109375 1.75,-3.109375 c -0.65625,0 -1.125,0.25 -1.125,0.671875 0,0.234375 0.15625,0.34375 0.34375,0.34375 0.1875,0 0.328125,-0.140625 0.328125,-0.328125 0,-0.109375 -0.0625,-0.265625 -0.25,-0.3125 0.25,-0.171875 0.65625,-0.171875 0.6875,-0.171875 0.390625,0 0.828125,0.25 0.828125,0.84375 v 0.203125 C 2.171875,-1.84375 1.71875,-1.8125 1.203125,-1.625 c -0.625,0.21875 -0.8125,0.609375 -0.8125,0.921875 0,0.59375 0.71875,0.765625 1.21875,0.765625 0.546875,0 0.875,-0.3125 1.03125,-0.578125 0.015625,0.28125 0.203125,0.546875 0.53125,0.546875 0.015625,0 0.6875,0 0.6875,-0.65625 V -1.015625 H 3.625 v 0.375 c 0,0.078125 0,0.40625 -0.265625,0.40625 -0.25,0 -0.25,-0.328125 -0.25,-0.40625 z M 2.5625,-0.984375 c 0,0.671875 -0.59375,0.859375 -0.90625,0.859375 -0.359375,0 -0.6875,-0.234375 -0.6875,-0.578125 0,-0.390625 0.328125,-0.921875 1.59375,-0.96875 z m 0,0"
           id="path8306" />
      </symbol>
      <symbol
         overflow="visible"
         id="symbol4926">
        <path
           style="stroke:none"
           d="m 3.59375,-2.109375 c 0,-0.609375 -0.296875,-0.96875 -1.046875,-0.96875 -0.578125,0 -0.9375,0.3125 -1.140625,0.6875 v -0.6875 L 0.375,-3 v 0.25 c 0.46875,0 0.53125,0.046875 0.53125,0.390625 v 1.8125 C 0.90625,-0.25 0.828125,-0.25 0.375,-0.25 V 0 C 0.390625,0 0.875,-0.03125 1.171875,-0.03125 1.421875,-0.03125 1.90625,0 1.96875,0 v -0.25 c -0.453125,0 -0.515625,0 -0.515625,-0.296875 V -1.8125 c 0,-0.71875 0.578125,-1.0625 1.03125,-1.0625 0.484375,0 0.546875,0.375 0.546875,0.734375 v 1.59375 C 3.03125,-0.25 2.96875,-0.25 2.515625,-0.25 V 0 C 2.53125,0 3.015625,-0.03125 3.3125,-0.03125 3.5625,-0.03125 4.046875,0 4.109375,0 v -0.25 c -0.453125,0 -0.515625,0 -0.515625,-0.296875 z m 0,0"
           id="path2363" />
      </symbol>
      <symbol
         overflow="visible"
         id="symbol2637">
        <path
           style="stroke:none"
           d="m 1.46875,-4.296875 c 0,-0.203125 -0.171875,-0.40625 -0.40625,-0.40625 -0.203125,0 -0.390625,0.171875 -0.390625,0.40625 0,0.25 0.203125,0.40625 0.390625,0.40625 0.234375,0 0.40625,-0.171875 0.40625,-0.40625 z M 0.40625,-3 v 0.25 c 0.4375,0 0.5,0.046875 0.5,0.390625 v 1.8125 C 0.90625,-0.25 0.84375,-0.25 0.390625,-0.25 V 0 c 0.015625,0 0.5,-0.03125 0.78125,-0.03125 0.25,0 0.5,0.015625 0.734375,0.03125 V -0.25 C 1.5,-0.25 1.4375,-0.25 1.4375,-0.546875 v -2.53125 z m 0,0"
           id="path1495" />
      </symbol>
      <symbol
         overflow="visible"
         id="symbol9421">
        <path
           style="stroke:none"
           d="m 2.640625,-2.921875 c 0,-0.125 0,-0.1875 -0.09375,-0.1875 -0.03125,0 -0.046875,0 -0.140625,0.078125 -0.015625,0.015625 -0.078125,0.078125 -0.125,0.109375 -0.21875,-0.140625 -0.46875,-0.1875 -0.734375,-0.1875 -1,0 -1.234375,0.53125 -1.234375,0.875 0,0.21875 0.09375,0.40625 0.265625,0.546875 0.265625,0.21875 0.53125,0.265625 0.96875,0.34375 0.34375,0.0625 0.90625,0.15625 0.90625,0.625 0,0.265625 -0.1875,0.59375 -0.859375,0.59375 -0.671875,0 -0.90625,-0.4375 -1.03125,-0.90625 -0.03125,-0.09375 -0.03125,-0.125 -0.125,-0.125 -0.125,0 -0.125,0.046875 -0.125,0.1875 v 0.859375 C 0.3125,0 0.3125,0.0625 0.40625,0.0625 0.46875,0.0625 0.609375,-0.078125 0.75,-0.234375 1.046875,0.0625 1.421875,0.0625 1.59375,0.0625 c 0.90625,0 1.25,-0.484375 1.25,-0.96875 0,-0.265625 -0.125,-0.484375 -0.3125,-0.640625 -0.265625,-0.25 -0.578125,-0.3125 -0.828125,-0.34375 -0.546875,-0.109375 -1,-0.1875 -1,-0.5625 0,-0.21875 0.1875,-0.484375 0.84375,-0.484375 0.8125,0 0.84375,0.5625 0.859375,0.765625 0,0.078125 0.09375,0.078125 0.109375,0.078125 0.125,0 0.125,-0.046875 0.125,-0.1875 z m 0,0"
           id="path6658" />
      </symbol>
      <symbol
         overflow="visible"
         id="symbol7848">
        <path
           style="stroke:none"
           d=""
           id="path4456" />
      </symbol>
      <symbol
         overflow="visible"
         id="symbol2420">
        <path
           style="stroke:none"
           d="m 1.46875,-0.109375 c 0,0.375 -0.0625,0.828125 -0.546875,1.265625 C 0.90625,1.1875 0.875,1.21875 0.875,1.25 c 0,0.046875 0.0625,0.09375 0.09375,0.09375 0.109375,0 0.703125,-0.5625 0.703125,-1.390625 0,-0.421875 -0.171875,-0.75 -0.5,-0.75 -0.21875,0 -0.390625,0.171875 -0.390625,0.390625 C 0.78125,-0.1875 0.9375,0 1.1875,0 1.359375,0 1.46875,-0.109375 1.46875,-0.109375 Z m 0,0"
           id="path7662" />
      </symbol>
    </g>
    <g
       id="g2909">
      <symbol
         overflow="visible"
         id="symbol3667">
        <path
           style="stroke:none"
           d=""
           id="path429" />
      </symbol>
      <symbol
         overflow="visible"
         id="symbol5083">
        <path
           style="stroke:none"
           d="m 3.953125,-6.234375 c 0,-0.1875 -0.140625,-0.359375 -0.375,-0.359375 -0.234375,0 -0.53125,0.234375 -0.53125,0.53125 0,0.203125 0.140625,0.359375 0.375,0.359375 0.265625,0 0.53125,-0.265625 0.53125,-0.53125 z m -2,6.734375 c -0.1875,0.75 -0.671875,1.328125 -1.21875,1.328125 -0.0625,0 -0.21875,0 -0.390625,-0.09375 0.296875,-0.0625 0.4375,-0.328125 0.4375,-0.53125 0,-0.15625 -0.109375,-0.34375 -0.375,-0.34375 -0.25,0 -0.53125,0.203125 -0.53125,0.5625 0,0.40625 0.390625,0.625 0.875,0.625 0.703125,0 1.625,-0.53125 1.875,-1.515625 L 3.53125,-3.125 c 0.0625,-0.1875 0.0625,-0.328125 0.0625,-0.359375 0,-0.578125 -0.421875,-0.921875 -0.921875,-0.921875 -1.015625,0 -1.578125,1.453125 -1.578125,1.53125 0,0.109375 0.09375,0.109375 0.109375,0.109375 0.09375,0 0.109375,-0.015625 0.1875,-0.203125 0.25,-0.609375 0.703125,-1.21875 1.25,-1.21875 0.140625,0 0.3125,0.046875 0.3125,0.453125 0,0.234375 -0.015625,0.34375 -0.0625,0.515625 z m 0,0"
           id="path5854" />
      </symbol>
    </g>
    <g
       id="g4944">
      <symbol
         overflow="visible"
         id="symbol8217">
        <path
           style="stroke:none"
           d=""
           id="path9627" />
      </symbol>
      <symbol
         overflow="visible"
         id="symbol826">
        <path
           style="stroke:none"
           d="m 3.734375,-6.125 c 0.0625,-0.234375 0.09375,-0.328125 0.28125,-0.359375 C 4.109375,-6.5 4.421875,-6.5 4.625,-6.5 c 0.703125,0 1.8125,0 1.8125,0.984375 0,0.34375 -0.15625,1.03125 -0.546875,1.421875 -0.265625,0.25 -0.78125,0.578125 -1.6875,0.578125 H 3.09375 Z m 1.4375,2.734375 c 1.015625,-0.21875 2.1875,-0.921875 2.1875,-1.921875 0,-0.859375 -0.890625,-1.5 -2.203125,-1.5 H 2.328125 c -0.203125,0 -0.296875,0 -0.296875,0.203125 C 2.03125,-6.5 2.125,-6.5 2.3125,-6.5 c 0.015625,0 0.203125,0 0.375,0.015625 0.1875,0.03125 0.265625,0.03125 0.265625,0.171875 0,0.03125 0,0.0625 -0.03125,0.1875 l -1.34375,5.34375 C 1.484375,-0.390625 1.46875,-0.3125 0.671875,-0.3125 0.5,-0.3125 0.40625,-0.3125 0.40625,-0.109375 0.40625,0 0.53125,0 0.546875,0 c 0.28125,0 0.984375,-0.03125 1.25,-0.03125 0.28125,0 1,0.03125 1.28125,0.03125 0.078125,0 0.1875,0 0.1875,-0.203125 0,-0.109375 -0.078125,-0.109375 -0.28125,-0.109375 -0.359375,0 -0.640625,0 -0.640625,-0.171875 0,-0.0625 0.015625,-0.109375 0.03125,-0.171875 l 0.65625,-2.640625 h 1.1875 c 0.90625,0 1.078125,0.5625 1.078125,0.90625 0,0.140625 -0.078125,0.453125 -0.140625,0.6875 C 5.09375,-1.421875 5,-1.0625 5,-0.859375 5,0.21875 6.203125,0.21875 6.328125,0.21875 c 0.84375,0 1.203125,-1 1.203125,-1.140625 0,-0.125 -0.109375,-0.125 -0.125,-0.125 -0.09375,0 -0.109375,0.0625 -0.125,0.140625 C 7.03125,-0.171875 6.59375,0 6.375,0 6.046875,0 5.96875,-0.21875 5.96875,-0.609375 c 0,-0.3125 0.0625,-0.8125 0.109375,-1.140625 0.015625,-0.140625 0.03125,-0.328125 0.03125,-0.46875 0,-0.765625 -0.671875,-1.078125 -0.9375,-1.171875 z m 0,0"
           id="path1650" />
      </symbol>
    </g>
    <g
       id="g2668">
      <symbol
         overflow="visible"
         id="symbol686">
        <path
           style="stroke:none"
           d=""
           id="path2416" />
      </symbol>
      <symbol
         overflow="visible"
         id="symbol9278">
        <path
           style="stroke:none"
           d="M 3.328125,-3.015625 C 3.390625,-3.265625 3.625,-4.1875 4.3125,-4.1875 c 0.046875,0 0.296875,0 0.5,0.125 C 4.53125,-4 4.34375,-3.765625 4.34375,-3.515625 c 0,0.15625 0.109375,0.34375 0.375,0.34375 0.21875,0 0.53125,-0.171875 0.53125,-0.578125 0,-0.515625 -0.578125,-0.65625 -0.921875,-0.65625 -0.578125,0 -0.921875,0.53125 -1.046875,0.75 -0.25,-0.65625 -0.78125,-0.75 -1.078125,-0.75 -1.03125,0 -1.609375,1.28125 -1.609375,1.53125 0,0.109375 0.109375,0.109375 0.125,0.109375 0.078125,0 0.109375,-0.03125 0.125,-0.109375 0.34375,-1.0625 1,-1.3125 1.34375,-1.3125 0.1875,0 0.53125,0.09375 0.53125,0.671875 0,0.3125 -0.171875,0.96875 -0.53125,2.375 -0.15625,0.609375 -0.515625,1.03125 -0.953125,1.03125 -0.0625,0 -0.28125,0 -0.5,-0.125 0.25,-0.0625 0.46875,-0.265625 0.46875,-0.546875 0,-0.265625 -0.21875,-0.34375 -0.359375,-0.34375 -0.3125,0 -0.546875,0.25 -0.546875,0.578125 0,0.453125 0.484375,0.65625 0.921875,0.65625 0.671875,0 1.03125,-0.703125 1.046875,-0.75 0.125,0.359375 0.484375,0.75 1.078125,0.75 1.03125,0 1.59375,-1.28125 1.59375,-1.53125 0,-0.109375 -0.078125,-0.109375 -0.109375,-0.109375 -0.09375,0 -0.109375,0.046875 -0.140625,0.109375 -0.328125,1.078125 -1,1.3125 -1.3125,1.3125 -0.390625,0 -0.546875,-0.3125 -0.546875,-0.65625 0,-0.21875 0.046875,-0.4375 0.15625,-0.875 z m 0,0"
           id="path4641" />
      </symbol>
    </g>
    <g
       id="g9930">
      <symbol
         overflow="visible"
         id="symbol6123">
        <path
           style="stroke:none"
           d=""
           id="path3853" />
      </symbol>
      <symbol
         overflow="visible"
         id="symbol2031">
        <path
           style="stroke:none"
           d="m 4.84375,-3.796875 c 0.046875,-0.140625 0.046875,-0.15625 0.046875,-0.234375 0,-0.171875 -0.140625,-0.265625 -0.296875,-0.265625 -0.09375,0 -0.25,0.0625 -0.34375,0.203125 -0.015625,0.0625 -0.109375,0.359375 -0.140625,0.546875 -0.078125,0.25 -0.140625,0.53125 -0.203125,0.796875 l -0.453125,1.796875 c -0.03125,0.140625 -0.46875,0.84375 -1.125,0.84375 -0.5,0 -0.609375,-0.4375 -0.609375,-0.8125 C 1.71875,-1.375 1.890625,-2 2.21875,-2.875 2.375,-3.28125 2.421875,-3.390625 2.421875,-3.59375 c 0,-0.4375 -0.3125,-0.8125 -0.8125,-0.8125 -0.953125,0 -1.3125,1.453125 -1.3125,1.53125 0,0.109375 0.09375,0.109375 0.109375,0.109375 0.109375,0 0.109375,-0.03125 0.15625,-0.1875 0.28125,-0.9375 0.671875,-1.234375 1.015625,-1.234375 0.078125,0 0.25,0 0.25,0.3125 0,0.25 -0.109375,0.515625 -0.171875,0.703125 -0.40625,1.0625 -0.578125,1.625 -0.578125,2.09375 0,0.890625 0.625,1.1875 1.21875,1.1875 0.390625,0 0.71875,-0.171875 1,-0.453125 -0.125,0.515625 -0.25,1.015625 -0.640625,1.546875 -0.265625,0.328125 -0.640625,0.625 -1.09375,0.625 -0.140625,0 -0.59375,-0.03125 -0.765625,-0.421875 0.15625,0 0.296875,0 0.421875,-0.125 C 1.328125,1.203125 1.421875,1.0625 1.421875,0.875 1.421875,0.5625 1.15625,0.53125 1.0625,0.53125 0.828125,0.53125 0.5,0.6875 0.5,1.171875 c 0,0.5 0.4375,0.875 1.0625,0.875 1.015625,0 2.046875,-0.90625 2.328125,-2.03125 z m 0,0"
           id="path5295" />
      </symbol>
    </g>
  </defs>
  <sodipodi:namedview
     fit-margin-bottom="0"
     fit-margin-top="0"
     id="base"
     pagecolor="#ffffff"
     bordercolor="#666666"
     borderopacity="1.0"
     inkscape:pageopacity="0.0"
     inkscape:pageshadow="2"
     inkscape:zoom="0.125"
     inkscape:cx="714.94383"
     inkscape:cy="1530.7074"
     inkscape:document-units="mm"
     inkscape:current-layer="layer1"
     inkscape:document-rotation="0"
     showgrid="true"
     units="mm"
     fit-margin-left="0"
     inkscape:window-width="1878"
     inkscape:window-height="1003"
     inkscape:window-x="21"
     inkscape:window-y="56"
     inkscape:window-maximized="0"
     fit-margin-right="0">
    <inkscape:grid
       originy="-96.117269"
       originx="-579.99994"
       type="xygrid"
       id="grid833"
       spacingx="9.9999999"
       spacingy="9.9999999"
       units="mm"
       empcolor="#0015ff"
       empopacity="0.25098039"
       color="#8b8b8b"
       opacity="0.1254902" />
  </sodipodi:namedview>
  <metadata
     id="metadata5">
    <rdf:RDF>
      <cc:Work
         rdf:about="">
        <dc:format>image/svg+xml</dc:format>
        <dc:type
           rdf:resource="http://purl.org/dc/dcmitype/StillImage" />
        <dc:title></dc:title>
      </cc:Work>
    </rdf:RDF>
  </metadata>
  <g
     transform="translate(-579.99997,-96.117274)"
     inkscape:label="Layer 1"
     inkscape:groupmode="layer"
     id="layer1">
    <circle
       style="fill:#ff9e9e;fill-opacity:1;stroke:none;stroke-width:0.3;stroke-miterlimit:4;stroke-dasharray:none"
       id="path835"
       cx="1048.783"
       cy="500.00006"
       r="250" />
    <path
       style="fill:#000000;fill-opacity:1;stroke:none;stroke-width:0.265;stroke-linecap:butt;stroke-linejoin:miter;stroke-miterlimit:4;stroke-dasharray:none;stroke-opacity:1"
       d="m 848.78302,450.00004 v 99.99999 H 1148.783 v 50 l 100,-99.99998 -100,-100.00001 v 50 z"
       id="path1131" />
    <path
       style="fill:#000000;fill-opacity:1;stroke:none;stroke-width:0.265;stroke-linecap:butt;stroke-linejoin:miter;stroke-miterlimit:4;stroke-dasharray:none;stroke-opacity:1"
       d="m 579.99997,490 v 19.99999 H 729.99999 V 520 L 749.99996,500.00001 729.99999,480 v 10 z"
       id="path849" />
    <g
       id="g896"
       transform="matrix(6.1408137,0,0,6.1408137,348.7525,-78.482547)"
       inkscape:label="">
      <g
         id="g2556">
        <g
           style="fill:#000000;fill-opacity:1"
           id="g6697">
          <use
             xlink:href="#symbol1957"
             x="91.925003"
             y="81.962997"
             id="use51"
             width="100%"
             height="100%" />
        </g>
        <g
           style="fill:#000000;fill-opacity:1"
           id="g555">
          <use
             xlink:href="#symbol2599"
             x="100.075"
             y="83.457001"
             id="use8462"
             width="100%"
             height="100%" />
          <use
             xlink:href="#symbol3635"
             x="103.617"
             y="83.457001"
             id="use804"
             width="100%"
             height="100%" />
        </g>
        <g
           style="fill:#000000;fill-opacity:1"
           id="g5883">
          <use
             xlink:href="#symbol2420"
             x="108.9"
             y="83.457001"
             id="use6631"
             width="100%"
             height="100%" />
        </g>
        <g
           style="fill:#000000;fill-opacity:1"
           id="g5446">
          <use
             xlink:href="#symbol8082"
             x="111.266"
             y="83.457001"
             id="use9040"
             width="100%"
             height="100%" />
          <use
             xlink:href="#symbol4926"
             x="115.23758"
             y="83.457001"
             id="use8845"
             width="100%"
             height="100%" />
          <use
             xlink:href="#symbol2637"
             x="119.63805"
             y="83.457001"
             id="use4732"
             width="100%"
             height="100%" />
          <use
             xlink:href="#symbol9421"
             x="121.89337"
             y="83.457001"
             id="use9919"
             width="100%"
             height="100%" />
        </g>
      </g>
    </g>
    <g
       id="g992"
       transform="matrix(12.47724,0,0,12.47724,-510.98,-571.0817)"
       inkscape:label="">
      <g
         id="g554">
        <g
           style="fill:#000000;fill-opacity:1"
           id="g631">
          <use
             xlink:href="#symbol5083"
             x="91.925003"
             y="81.962997"
             id="use5512"
             width="100%"
             height="100%" />
        </g>
      </g>
    </g>
    <path
       style="fill:none;stroke:#000000;stroke-width:2;stroke-linecap:butt;stroke-linejoin:miter;stroke-miterlimit:4;stroke-dasharray:none;stroke-opacity:1;marker-start:url(#Arrow1Lstart);marker-end:url(#Arrow1Lend)"
       d="M 1348.7831,500 V 249.99999"
       id="path1006" />
    <g
       id="g1460"
       transform="matrix(7.4715659,0,0,7.4715659,672.78495,-216.32893)"
       inkscape:label="">
      <g
         id="g8411">
        <g
           style="fill:#000000;fill-opacity:1"
           id="g7459">
          <use
             xlink:href="#symbol826"
             x="91.925003"
             y="81.962997"
             id="use1131"
             width="100%"
             height="100%" />
        </g>
      </g>
    </g>
    <path
       id="path1579"
       style="fill:none;fill-opacity:1;stroke:#000000;stroke-width:2;stroke-miterlimit:4;stroke-dasharray:none;stroke-opacity:1"
       d="m 1080,850 a 30.000002,30.000002 0 0 1 -30,30 30.000002,30.000002 0 0 1 -30,-30 30.000002,30.000002 0 0 1 30,-30 30.000002,30.000002 0 0 1 30,30 z" />
    <ellipse
       style="fill:#000000;fill-opacity:1;stroke:#000000;stroke-width:2;stroke-miterlimit:4;stroke-dasharray:none;stroke-opacity:1"
       id="path1584"
       cx="1050"
       cy="850"
       rx="1.3066596e-10"
       ry="1.3054564e-10" />
    <circle
       style="fill:#000000;fill-opacity:1;stroke:#000000;stroke-width:2;stroke-miterlimit:4;stroke-dasharray:none;stroke-opacity:1"
       id="path1586"
       cx="1050"
       cy="850"
       r="10" />
    <g
       inkscape:label=""
       transform="matrix(6.1408137,0,0,6.1408137,516.99504,371.7969)"
       id="g1614">
      <g
         id="g1612">
        <g
           id="g1590"
           style="fill:#000000;fill-opacity:1">
          <use
             height="100%"
             width="100%"
             id="use1588"
             y="81.962997"
             x="91.925003"
             xlink:href="#symbol1957" />
        </g>
        <g
           id="g1596"
           style="fill:#000000;fill-opacity:1">
          <use
             height="100%"
             width="100%"
             id="use1592"
             y="83.457001"
             x="100.075"
             xlink:href="#symbol2599" />
          <use
             height="100%"
             width="100%"
             id="use1594"
             y="83.457001"
             x="103.617"
             xlink:href="#symbol3635" />
        </g>
        <g
           id="g1600"
           style="fill:#000000;fill-opacity:1">
          <use
             height="100%"
             width="100%"
             id="use1598"
             y="83.457001"
             x="108.9"
             xlink:href="#symbol2420" />
        </g>
        <g
           id="g1610"
           style="fill:#000000;fill-opacity:1">
          <use
             height="100%"
             width="100%"
             id="use1602"
             y="83.457001"
             x="111.266"
             xlink:href="#symbol8082" />
          <use
             height="100%"
             width="100%"
             id="use1604"
             y="83.457001"
             x="115.23758"
             xlink:href="#symbol4926" />
          <use
             height="100%"
             width="100%"
             id="use1606"
             y="83.457001"
             x="119.63805"
             xlink:href="#symbol2637" />
          <use
             height="100%"
             width="100%"
             id="use1608"
             y="83.457001"
             x="121.89337"
             xlink:href="#symbol9421" />
        </g>
      </g>
    </g>
    <path
       style="fill:none;stroke:#000000;stroke-width:2;stroke-linecap:butt;stroke-linejoin:miter;stroke-miterlimit:4;stroke-dasharray:none;stroke-opacity:1;marker-start:url(#marker1620);marker-end:url(#marker1724)"
       d="M 799.99999,99.999999 V 200 H 900"
       id="path1616" />
    <g
       id="g1861"
       transform="translate(795.18749,134.0625)"
       inkscape:label="">
      <g
         id="g6817">
        <g
           style="fill:#000000;fill-opacity:1"
           id="g6492">
          <use
             xlink:href="#symbol9278"
             x="91.925003"
             y="81.962997"
             id="use969"
             width="100%"
             height="100%"
             style="stroke-width:1;stroke-miterlimit:4;stroke-dasharray:none"
             transform="matrix(4.2477709,0,0,4.2477709,-305.46097,-249.79742)" />
        </g>
      </g>
    </g>
    <g
       id="g1993"
       transform="translate(679.75162,24.686804)"
       inkscape:label=""
       style="stroke-width:1;stroke-miterlimit:4;stroke-dasharray:none">
      <g
         id="g5443"
         style="stroke-width:1;stroke-miterlimit:4;stroke-dasharray:none">
        <g
           style="fill:#000000;fill-opacity:1;stroke-width:1;stroke-miterlimit:4;stroke-dasharray:none"
           id="g3096">
          <use
             xlink:href="#symbol2031"
             x="91.925003"
             y="81.962997"
             id="use4499"
             width="100%"
             height="100%"
             style="stroke-width:1;stroke-miterlimit:4;stroke-dasharray:none"
             transform="matrix(3.5015322,0,0,3.5015322,-230.696,-194.0107)" />
        </g>
      </g>
    </g>
  </g>
</svg>
